<?xml version="1.0"?>
<svg xmlns="http://www.w3.org/2000/svg" height="512px" viewBox="0 0 464 464" width="512px" class=""><g><path d="m144 80h16v16h-16zm0 0" data-original="#000000" class="active-path" data-old_color="#000000" fill="#FFFFFF"/><path d="m216 80h16v16h-16zm0 0" data-original="#000000" class="active-path" data-old_color="#000000" fill="#FFFFFF"/><path d="m136 144h176c13.230469 0 24-10.769531 24-24v-64c0-13.230469-10.769531-24-24-24h-176c-13.230469 0-24 10.769531-24 24v64c0 13.230469 10.769531 24 24 24zm136-80h48v48h-48zm-72 0h48v48h-48zm-72 0h48v48h-48zm0 0" data-original="#000000" class="active-path" data-old_color="#000000" fill="#FFFFFF"/><path d="m288 80h16v16h-16zm0 0" data-original="#000000" class="active-path" data-old_color="#000000" fill="#FFFFFF"/><path d="m64 11.3125-52.6875 52.6875h52.6875zm0 0" data-original="#000000" class="active-path" data-old_color="#000000" fill="#FFFFFF"/><path d="m291.308594 383.664062 114.226562-114.226562 8.691406 8.6875-114.230468 114.226562zm0 0" data-original="#000000" class="active-path" data-old_color="#000000" fill="#FFFFFF"/><path d="m73.289062 418.480469-29.730468-19.824219 8.875-13.3125 18.269531 12.175781 30.113281-33.128906c-7.28125-7.597656-17.480468-12.390625-28.816406-12.390625-22.054688 0-40 17.945312-40 40s17.945312 40 40 40 40-17.945312 40-40c0-4.71875-.96875-9.175781-2.480469-13.382812zm0 0" data-original="#000000" class="active-path" data-old_color="#000000" fill="#FFFFFF"/><path d="m275.648438 428.265625 29.144531-8.496094-20.816407-20.816406zm0 0" data-original="#000000" class="active-path" data-old_color="#000000" fill="#FFFFFF"/><path d="m443.71875 239.664062c-5.414062 0-10.503906 2.113282-14.34375 5.945313l-12.519531 12.511719 28.6875 28.6875 12.519531-12.511719c3.824219-3.824219 5.9375-8.921875 5.9375-14.34375 0-11.183594-9.105469-20.289063-20.28125-20.289063zm0 0" data-original="#000000" class="active-path" data-old_color="#000000" fill="#FFFFFF"/><path d="m252.351562 451.734375 20.519532-72.253906 95.128906-95.121094v-284.359375h-288v80h-80v384h368v-77.015625l-43.792969 43.792969zm99.648438-163.734375h-192v-16h192zm-192-32v-16h160v16zm192 0h-16v-16h16zm0-32h-192v-16h192zm-256-168c0-22.054688 17.945312-40 40-40h176c22.054688 0 40 17.945312 40 40v64c0 22.054688-17.945312 40-40 40h-176c-22.054688 0-40-17.945312-40-40zm32 336c0 30.871094-25.128906 56-56 56s-56-25.128906-56-56 25.128906-56 56-56c15.480469 0 29.496094 6.3125 39.640625 16.496094l34.4375-37.871094 11.84375 10.765625-36.5625 40.210937c4.226563 7.871094 6.640625 16.863282 6.640625 26.398438zm-6.640625-170.398438c4.226563 7.871094 6.640625 16.863282 6.640625 26.398438 0 30.871094-25.128906 56-56 56s-56-25.128906-56-56 25.128906-56 56-56c15.480469 0 29.496094 6.3125 39.640625 16.496094l34.4375-37.871094 11.84375 10.765625zm126.640625 210.398438h-88v-16h88zm0-32h-88v-16h88zm0-32h-88v-16h88zm0 0" data-original="#000000" class="active-path" data-old_color="#000000" fill="#FFFFFF"/><path d="m73.289062 274.480469-29.730468-19.824219 8.875-13.3125 18.269531 12.175781 30.113281-33.128906c-7.28125-7.597656-17.480468-12.390625-28.816406-12.390625-22.054688 0-40 17.945312-40 40s17.945312 40 40 40 40-17.945312 40-40c0-4.71875-.96875-9.175781-2.480469-13.382812zm0 0" data-original="#000000" class="active-path" data-old_color="#000000" fill="#FFFFFF"/><path d="m311.332031 403.6875 114.175781-114.273438 8.683594 8.679688-114.171875 114.273438zm0 0" data-original="#000000" class="active-path" data-old_color="#000000" fill="#FFFFFF"/></g> </svg>
