<?xml version="1.0"?>
<svg xmlns="http://www.w3.org/2000/svg" height="512px" viewBox="-5 0 512 512" width="512px" class=""><g><path d="m469.097656 0h-435.351562c-18.605469 0-33.746094 15.136719-33.746094 33.738281v273.835938c0 18.609375 15.140625 33.746093 33.746094 33.746093h159.632812c4.21875 0 7.640625-3.417968 7.640625-7.640624 0-4.21875-3.421875-7.640626-7.640625-7.640626h-159.632812c-10.179688 0-18.460938-8.285156-18.460938-18.464843v-273.835938c0-10.175781 8.28125-18.453125 18.460938-18.453125h435.351562c10.175782 0 18.453125 8.277344 18.453125 18.453125v273.835938c0 10.179687-8.277343 18.464843-18.453125 18.464843h-129.695312c-3.105469-8.964843-11.625-15.421874-21.632813-15.421874-2.667969 0-5.230469.460937-7.609375 1.304687v-.542969c0-12.621094-10.273437-22.890625-22.894531-22.890625-3.195313 0-6.238281.65625-9.003906 1.84375l-1.839844-68.460937c-.3125-11.609375-9.65625-20.707032-21.273437-20.707032-11.734376 0-21.28125 9.546876-21.28125 21.28125v74.757813h-163.578126v-119.28125c1.214844.246094 2.46875.375 3.757813.375h78.652344c10.5 0 19.039062-8.539063 19.039062-19.039063v-78.652343c0-10.5-8.539062-19.039063-19.039062-19.039063h-78.652344c-1.289063 0-2.542969.128906-3.757813.375v-17.828125h14.058594c4.222656 0 7.644532-3.421875 7.644532-7.644531 0-4.21875-3.421876-7.640625-7.644532-7.640625h-21.703125c-4.21875 0-7.640625 3.421875-7.640625 7.640625v268.375c0 4.222656 3.421875 7.640625 7.640625 7.640625h171.222657v7.050781l-6.628907 6.800782c-9.511719 9.757812-14.753906 22.636718-14.753906 36.265624v56.179688c0 15.253906 5.53125 29.976562 15.574219 41.460938 7.601562 8.695312 11.792968 19.84375 11.792968 31.394531v12.722656c0 4.21875 3.421876 7.640625 7.640626 7.640625s7.640624-3.421875 7.640624-7.640625v-12.722656c0-15.253907-5.527343-29.976563-15.570312-41.457031-7.605469-8.695313-11.792969-19.847657-11.792969-31.398438v-56.179688c0-7.300781 2.136719-14.296874 6.097657-20.253906v32.132813c0 4.222656 3.425781 7.640625 7.644531 7.640625s7.640625-3.417969 7.640625-7.640625v-69.546875c0-.03125.003906-.058594.003906-.089844s-.003906-.058594-.003906-.089844v-82.308594c0-3.308593 2.691406-5.996093 5.996094-5.996093 3.273437 0 5.90625 2.5625 5.996093 5.835937l2.21875 82.523438c0 .011718-.003906.023437-.003906.035156 0 .039062.007813.078125.007813.121094l1.007812 37.425781c.113281 4.21875 3.65625 7.527344 7.84375 7.429687 4.21875-.113281 7.546875-3.625 7.433594-7.84375l-.003906-.214843c0-.058594.007812-.117188.007812-.175781v-30.203126c0-4.199218 3.414062-7.609374 7.609375-7.609374s7.609375 3.410156 7.609375 7.609374v52.332032c0 4.222656 3.421875 7.640625 7.640625 7.640625 4.222656 0 7.644531-3.417969 7.644531-7.640625v-30.203125c0-4.195313 3.414063-7.609375 7.609375-7.609375 4.195313 0 7.609375 3.414062 7.609375 7.609375v.121093c0 .015626-.003906.03125-.003906.046876 0 .019531.003906.035156.003906.050781v56.300781c0 4.222656 3.421875 7.644531 7.640625 7.644531s7.640625-3.421875 7.640625-7.644531v-30.203125c0-4.199219 3.414063-7.609375 7.609375-7.609375 4.195313 0 7.609375 3.410156 7.609375 7.609375v82.328125c0 6.359375-2.140625 12.632812-6.027344 17.667969-5.949218 7.695312-9.222656 17.285156-9.222656 27.011719v14.933593c0 4.222657 3.421875 7.644531 7.640625 7.644531 4.222657 0 7.644531-3.421874 7.644531-7.644531v-14.933593c0-6.359376 2.140626-12.632813 6.027344-17.667969 5.949219-7.695313 9.222656-17.289063 9.222656-27.011719v-82.328125c0-7.597656-3.722656-14.339844-9.4375-18.507813h107.371094c18.605469 0 33.738282-15.136718 33.738282-33.746093v-273.835938c.003906-18.601562-15.132813-33.738281-33.738282-33.738281zm-374.476562 163.015625v-6.460937c0-3.921876 3.191406-7.109376 7.109375-7.109376h21.652343c3.917969 0 7.105469 3.1875 7.105469 7.109376v6.460937zm-24.332032-82.410156c0-2.070313 1.6875-3.753907 3.757813-3.753907h78.652344c2.070312 0 3.753906 1.683594 3.753906 3.753907v78.652343c0 2.074219-1.683594 3.757813-3.753906 3.757813h-6.925781v-6.460937c0-12.347657-10.042969-22.394532-22.390626-22.394532h-21.652343c-12.347657 0-22.390625 10.046875-22.390625 22.394532v6.460937h-5.292969c-2.070313 0-3.757813-1.683594-3.757813-3.757813zm0 0" data-original="#000000" class="active-path" data-old_color="#000000" fill="#FFFFFF"/><path d="m338.742188 297.203125c-4.222657 0-7.644532 3.417969-7.644532 7.640625 0 4.21875 3.421875 7.640625 7.644532 7.640625h101.449218c4.222656 0 7.640625-3.421875 7.640625-7.640625v-268.375c0-4.222656-3.417969-7.640625-7.640625-7.640625h-324.253906c-4.222656 0-7.640625 3.417969-7.640625 7.640625 0 4.21875 3.421875 7.640625 7.640625 7.640625h316.613281v17.832031c-1.214843-.246094-2.472656-.378906-3.757812-.378906h-78.652344c-10.5 0-19.042969 8.542969-19.042969 19.042969v31.398437c0 4.21875 3.421875 7.640625 7.640625 7.640625 4.222657 0 7.644531-3.421875 7.644531-7.640625v-31.398437c0-2.070313 1.683594-3.753907 3.753907-3.753907h78.652343c2.074219 0 3.757813 1.683594 3.757813 3.753907v78.652343c0 2.074219-1.683594 3.757813-3.757813 3.757813h-6.921874v-6.460937c0-12.347657-10.046876-22.394532-22.390626-22.394532h-21.652343c-12.347657 0-22.390625 10.046875-22.390625 22.394532v6.460937h-5.292969c-2.074219 0-3.757813-1.683594-3.757813-3.757813v-17.453124c0-4.21875-3.421874-7.640626-7.640624-7.640626-4.222657 0-7.644532 3.421876-7.644532 7.640626v17.453124c0 10.5 8.542969 19.042969 19.042969 19.042969h78.652344c1.285156 0 2.542969-.132812 3.757812-.375v119.277344zm31.976562-134.1875v-6.460937c0-3.921876 3.1875-7.109376 7.105469-7.109376h21.652343c3.917969 0 7.105469 3.1875 7.105469 7.109376v6.460937zm0 0" data-original="#000000" class="active-path" data-old_color="#000000" fill="#FFFFFF"/><path d="m212.09375 61.566406c-10.5 0-19.042969 8.539063-19.042969 19.039063v78.652343c0 10.5 8.542969 19.042969 19.042969 19.042969h78.652344c10.5 0 19.039062-8.542969 19.039062-19.042969v-78.652343c0-10.5-8.539062-19.039063-19.039062-19.039063zm20.574219 101.449219v-6.460937c0-3.921876 3.1875-7.109376 7.109375-7.109376h21.652344c3.917968 0 7.109374 3.1875 7.109374 7.109376v6.460937zm61.832031-82.410156v78.652343c0 2.074219-1.683594 3.757813-3.753906 3.757813h-6.925782v-6.460937c0-12.347657-10.042968-22.394532-22.390624-22.394532h-21.652344c-12.347656 0-22.390625 10.046875-22.390625 22.394532v6.460937h-5.292969c-2.070312 0-3.757812-1.683594-3.757812-3.757813v-78.652343c0-2.070313 1.6875-3.753907 3.757812-3.753907h78.652344c2.070312 0 3.753906 1.683594 3.753906 3.753907zm0 0" data-original="#000000" class="active-path" data-old_color="#000000" fill="#FFFFFF"/><path d="m250.601562 82.042969c-12.550781 0-22.765624 10.210937-22.765624 22.765625 0 12.550781 10.214843 22.765625 22.765624 22.765625 12.554688 0 22.765626-10.214844 22.765626-22.765625 0-12.554688-10.210938-22.765625-22.765626-22.765625zm0 30.246093c-4.125 0-7.480468-3.355468-7.480468-7.480468 0-4.128906 3.355468-7.484375 7.480468-7.484375 4.128907 0 7.484376 3.355469 7.484376 7.484375 0 4.125-3.355469 7.480468-7.484376 7.480468zm0 0" data-original="#000000" class="active-path" data-old_color="#000000" fill="#FFFFFF"/><path d="m411.417969 104.808594c0-12.554688-10.214844-22.765625-22.769531-22.765625-12.550782 0-22.765626 10.210937-22.765626 22.765625 0 12.554687 10.214844 22.765625 22.765626 22.765625 12.554687 0 22.769531-10.210938 22.769531-22.765625zm-30.25 0c0-4.125 3.355469-7.484375 7.484375-7.484375 4.125 0 7.480468 3.359375 7.480468 7.484375s-3.355468 7.480468-7.480468 7.480468c-4.128906 0-7.484375-3.355468-7.484375-7.480468zm0 0" data-original="#000000" class="active-path" data-old_color="#000000" fill="#FFFFFF"/><path d="m112.554688 127.574219c12.554687 0 22.769531-10.210938 22.769531-22.765625 0-12.554688-10.214844-22.765625-22.769531-22.765625-12.554688 0-22.765626 10.210937-22.765626 22.765625 0 12.554687 10.214844 22.765625 22.765626 22.765625zm0-30.25c4.128906 0 7.484374 3.359375 7.484374 7.484375s-3.355468 7.480468-7.484374 7.480468c-4.125 0-7.480469-3.355468-7.480469-7.480468s3.355469-7.484375 7.480469-7.484375zm0 0" data-original="#000000" class="active-path" data-old_color="#000000" fill="#FFFFFF"/><path d="m28.816406 154.945312v31.425782c0 4.21875 3.421875 7.640625 7.640625 7.640625s7.640625-3.421875 7.640625-7.640625v-31.425782c0-4.222656-3.421875-7.644531-7.640625-7.644531s-7.640625 3.421875-7.640625 7.644531zm0 0" data-original="#000000" class="active-path" data-old_color="#000000" fill="#FFFFFF"/><path d="m475.835938 170.65625c0 4.222656-3.421876 7.644531-7.640626 7.644531-4.222656 0-7.644531-3.421875-7.644531-7.644531 0-4.21875 3.421875-7.640625 7.644531-7.640625 4.21875 0 7.640626 3.421875 7.640626 7.640625zm0 0" data-original="#000000" class="active-path" data-old_color="#000000" fill="#FFFFFF"/></g> </svg>
