<?xml version="1.0"?>
<svg xmlns="http://www.w3.org/2000/svg" height="512px" viewBox="0 0 464 464" width="512px" class=""><g><path d="m448 256c-8.839844 0-16 7.160156-16 16v-16c0-8.839844-7.160156-16-16-16s-16 7.160156-16 16v-16c0-8.839844-7.160156-16-16-16s-16 7.160156-16 16v-64c0-8.839844-7.160156-16-16-16s-16 7.160156-16 16v152c-9.265625 0-17.207031-6.625-18.863281-15.742188l-10.535157-57.9375c-1.503906-8.289062-8.730468-14.320312-17.160156-14.320312-9.632812 0-17.441406 7.808594-17.441406 17.441406v5.109375c0 .960938.078125 1.921875.238281 2.863281l14.394531 86.355469c.894532 5.390625 3.160157 10.460938 6.574219 14.726563l19.785157 24.726562c4.535156 5.6875 7.007812 12.738282 7.007812 20v52.777344h112v-20.777344c0-7.261718 2.472656-14.320312 7.015625-19.992187l17.976563-22.46875c4.535156-5.671875 7.007812-12.722657 7.007812-19.984375v-108.777344c0-8.839844-7.160156-16-16-16zm0 0" data-original="#000000" class="active-path" data-old_color="#000000" fill="#FFFFFF"/><path d="m320 194.511719v-18.511719c0-17.648438 14.351562-32 32-32s32 14.351562 32 32v18.511719c37.28125-13.183594 64-48.71875 64-90.511719 0-22.863281-8.023438-43.839844-21.367188-60.328125l-107.183593 87.089844-29.105469-29.105469 11.3125-11.3125 18.894531 18.894531 94.929688-77.125c-16.929688-14.960937-39.113281-24.113281-63.480469-24.113281-53.015625 0-96 42.984375-96 96 0 41.792969 26.71875 77.335938 64 90.511719zm0 0" data-original="#000000" class="active-path" data-old_color="#000000" fill="#FFFFFF"/><path d="m426.632812 43.671875 26.414063-21.464844-10.09375-12.414062-27.472656 22.320312c4.015625 3.550781 7.777343 7.390625 11.152343 11.558594zm0 0" data-original="#000000" class="active-path" data-old_color="#000000" fill="#FFFFFF"/><path d="m112 193.871094-14.496094 28.953125-32.136718 4.609375 23.242187 22.328125-5.511719 31.710937 28.902344-14.984375 28.902344 14.984375-5.511719-31.710937 23.242187-22.328125-32.136718-4.609375zm0 0" data-original="#000000" class="active-path" data-old_color="#000000" fill="#FFFFFF"/><path d="m112 345.734375-12.046875 23.832031-26.464844 3.761719 19.136719 18.199219-4.570312 26.007812 23.945312-12.296875 23.945312 12.296875-4.570312-26.007812 19.136719-18.199219-26.464844-3.761719zm0 0" data-original="#000000" class="active-path" data-old_color="#000000" fill="#FFFFFF"/><path d="m88.054688 121.535156 23.945312-12.296875 23.945312 12.296875-4.570312-26.007812 19.136719-18.199219-26.464844-3.761719-12.046875-23.832031-12.046875 23.832031-26.464844 3.761719 19.136719 18.199219zm0 0" data-original="#000000" class="active-path" data-old_color="#000000" fill="#FFFFFF"/><path d="m184 0h-144c-22.054688 0-40 17.945312-40 40v384c0 22.054688 17.945312 40 40 40h144c22.054688 0 40-17.945312 40-40v-384c0-22.054688-17.945312-40-40-40zm-94.558594 58.894531 22.558594-44.628906 22.558594 44.628906 50.921875 7.226563-36.855469 35.085937 8.648438 49.257813-45.273438-23.242188-45.273438 23.242188 8.648438-49.257813-36.855469-35.085937zm59.183594 338.3125 8.648438 49.257813-45.273438-23.242188-45.273438 23.242188 8.648438-49.257813-36.855469-35.085937 50.921875-7.226563 22.558594-44.628906 22.558594 44.628906 50.921875 7.226563zm3.984375-141.808593 9.589844 55.128906-50.199219-26.015625-50.199219 26.015625 9.589844-55.128906-40.757813-39.160157 56.3125-8.0625 25.054688-50.046875 25.054688 50.046875 56.3125 8.0625zm0 0" data-original="#000000" class="active-path" data-old_color="#000000" fill="#FFFFFF"/></g> </svg>
