<?xml version="1.0"?>
<svg xmlns="http://www.w3.org/2000/svg" height="512px" viewBox="0 0 484.55034 484" width="512px" class=""><g><path d="m321.019531 177.316406c0-79.53125-64.472656-144-144-144-79.53125 0-144 64.46875-144 144 0 79.527344 64.46875 144 144 144 79.488281-.09375 143.90625-64.511718 144-144zm-144 128c-70.695312 0-128-57.308594-128-128 0-70.695312 57.304688-128 128-128 70.691407 0 128 57.304688 128 128-.085937 70.65625-57.34375 127.914063-128 128zm0 0" data-original="#000000" class="active-path" data-old_color="#000000" fill="#FFFFFF"/><path d="m470.441406 402.851562-87.199218-87.199218 5.65625-5.65625-33.945313-33.945313-11.292969 11.3125-17.28125-17.25c47.417969-76.148437 30.183594-175.753906-40.0625-231.542969-70.246094-55.792968-171.167968-50.027343-234.605468 13.398438-63.433594 63.429688-69.214844 164.347656-13.433594 234.601562 55.78125 70.257813 155.382812 87.503907 231.539062 40.097657l17.289063 17.285156-11.296875 11.304687 33.9375 33.9375 5.65625-5.65625 87.199218 87.199219c18.746094 18.746094 49.140626 18.746094 67.890626 0 18.746093-18.746093 18.746093-49.140625 0-67.886719zm-453.421875-225.535156c.054688-88.28125 71.648438-159.8125 159.929688-159.792968 88.28125.019531 159.84375 71.578124 159.859375 159.859374.019531 88.28125-71.507813 159.875-159.789063 159.933594-88.324219-.101562-159.898437-71.679687-160-160zm281.359375 155.328125-15.121094-15.121093c12.820313-9.71875 24.25-21.148438 33.96875-33.96875l15.121094 15.121093zm56.574219-33.953125 11.320313 11.3125-56.566407 56.566406-11.3125-11.3125zm104.175781 160.734375c-12.507812 12.472657-32.753906 12.472657-45.261718 0l-87.199219-87.199219 45.253906-45.257812 87.199219 87.203125c12.460937 12.511719 12.464844 32.738281.007812 45.253906zm0 0" data-original="#000000" class="active-path" data-old_color="#000000" fill="#FFFFFF"/><path d="m257.019531 233.316406v-144h-48v144h-8v-112h-48v112h-8v-80h-48v80h-16v16h192v-16zm-144 0v-64h16v64zm56 0v-96h16v96zm56 0v-128h16v128zm0 0" data-original="#000000" class="active-path" data-old_color="#000000" fill="#FFFFFF"/></g> </svg>
